<svg xml:space="preserve" style="max-height: 500px" viewBox="8.399999999999999 0 7.199999999999999 24.060000000000002" y="0px" x="0px" version="1.1" xmlns:xlink="http://www.w3.org/1999/xlink" xmlns="http://www.w3.org/2000/svg" width="7.199999999999999" height="24.060000000000002"><g><g><path d="M11,24H9c-0.276,0-0.5-0.224-0.5-0.5S8.724,23,9,23h2c0.276,0,0.5-0.224,0.5-0.5v-21C11.5,1.224,11.276,1,11,1H9    C8.724,1,8.5,0.776,8.5,0.5S8.724,0,9,0h2c0.827,0,1.5,0.673,1.5,1.5v21C12.5,23.327,11.827,24,11,24z"/></g><g><path d="M15,24h-2c-0.827,0-1.5-0.673-1.5-1.5v-21C11.5,0.673,12.173,0,13,0h2c0.276,0,0.5,0.224,0.5,0.5S15.276,1,15,1h-2    c-0.276,0-0.5,0.224-0.5,0.5v21c0,0.276,0.224,0.5,0.5,0.5h2c0.276,0,0.5,0.224,0.5,0.5S15.276,24,15,24z"/></g></g><text font-family="'Helvetica Neue', Helvetica, Arial-Unicode, Arial, Sans-serif" font-weight="bold" font-size="5px" fill="#000000" y="39" x="0">Created by icon 54</text><text font-family="'Helvetica Neue', Helvetica, Arial-Unicode, Arial, Sans-serif" font-weight="bold" font-size="5px" fill="#000000" y="44" x="0">from the Noun Project</text></svg>